<svg width="40" height="40" viewBox="0 0 40 40" fill="none" xmlns="http://www.w3.org/2000/svg">
<g clip-path="url(#clip0_933_467)">
<path d="M20 2.82202C10.335 2.82202 2.5 9.83602 2.5 18.488C2.5 21.942 3.759 25.127 5.878 27.715C6.654 28.663 7.009 29.886 6.775 31.088L5.82 35.985C5.66 36.807 6.52 37.45 7.263 37.063L13.076 34.037C13.897 33.61 14.842 33.471 15.745 33.676C17.107 33.985 18.531 34.154 20 34.154C29.665 34.154 37.5 27.14 37.5 18.488C37.5 9.83602 29.665 2.82202 20 2.82202Z" fill="#E1E1E5"/>
<path d="M12.7539 17.03C13.8359 17.03 14.7119 17.907 14.7119 18.988C14.7119 19.507 14.5059 20.005 14.1379 20.373C13.7709 20.74 13.2729 20.947 12.7529 20.947C11.6709 20.947 10.7949 20.07 10.7949 18.989C10.7949 17.908 11.6719 17.031 12.7529 17.031L12.7539 17.03Z" fill="#AFAFB5"/>
<path d="M27.2461 20.946C28.3275 20.946 29.2041 20.0694 29.2041 18.988C29.2041 17.9067 28.3275 17.03 27.2461 17.03C26.1647 17.03 25.2881 17.9067 25.2881 18.988C25.2881 20.0694 26.1647 20.946 27.2461 20.946Z" fill="#AFAFB5"/>
<path d="M20 20.946C21.0814 20.946 21.958 20.0694 21.958 18.988C21.958 17.9067 21.0814 17.03 20 17.03C18.9186 17.03 18.042 17.9067 18.042 18.988C18.042 20.0694 18.9186 20.946 20 20.946Z" fill="#AFAFB5"/>
</g>
<defs>
<clipPath id="clip0_933_467">
<rect width="40" height="40" fill="white"/>
</clipPath>
</defs>
</svg>
