<svg width="300" height="169" viewBox="0 0 300 169" fill="none" xmlns="http://www.w3.org/2000/svg">
<g clip-path="url(#clip0_846_569)">
<rect width="300" height="169" fill="#F9F9F9"/>
<path d="M100.392 50.6302L110.02 119.142L181.779 110.101L173.292 46.3884L172 37L168.67 37.5411L103.224 46.7389C99 45.9999 100.126 48.7383 100.392 50.6302Z" fill="white"/>
<path d="M104.688 50.1653L168.402 41.7241L170.028 53.9993L174.5 86.5L145.775 110.142L119.735 113.654L113.214 114.518L104.688 50.1653Z" fill="#EFEFEF"/>
<path d="M200.59 59.7701L192.921 132.729L120.804 125.149L128.472 52.1903L200.59 59.7701Z" fill="white" stroke="#DBDBDB"/>
<path fill-rule="evenodd" clip-rule="evenodd" d="M134.531 62.5201C134.677 61.1278 135.924 60.1177 137.317 60.264L190.26 65.8286C191.653 65.9749 192.663 67.2223 192.516 68.6147L187.835 113.154C187.689 114.547 186.441 115.557 185.049 115.41L132.105 109.846C130.713 109.7 129.703 108.452 129.849 107.06L134.531 62.5201Z" fill="white"/>
<path fill-rule="evenodd" clip-rule="evenodd" d="M137.106 96.8467L145.385 91.2629C146.765 90.3319 148.618 90.5448 149.751 91.7648L155.813 98.2907C156.116 98.6164 156.619 98.652 156.964 98.3722L169.926 87.8691C171.488 86.604 173.801 86.9725 174.893 88.6601L183.326 101.705L184.538 103.726L183.958 110.591C183.918 111.065 183.495 111.412 183.022 111.36L134.889 106.012C134.431 105.961 134.098 105.553 134.141 105.095L134.779 98.1669L137.106 96.8467Z" fill="#EFEFEF"/>
<path d="M192.231 66.5385L187.125 115.126L130.134 109.136L135.241 60.5485L192.231 66.5385Z" stroke="#DBDBDB"/>
<path d="M118.5 118L109.632 119.242L100 46.5367L171.983 37L174 54.5" stroke="#DBDBDB"/>
</g>
<defs>
<clipPath id="clip0_846_569">
<rect width="300" height="169" fill="white"/>
</clipPath>
</defs>
</svg>
