<svg width="40" height="40" viewBox="0 0 40 40" fill="none" xmlns="http://www.w3.org/2000/svg">
<g clip-path="url(#clip0_951_1308)">
<path fill-rule="evenodd" clip-rule="evenodd" d="M6.27295 34.7249V5.27495C6.27295 4.74995 6.69795 4.32495 7.22295 4.32495H25.7269L33.728 12.326V34.7249C33.728 35.2499 33.303 35.6749 32.778 35.6749H7.22295C6.69795 35.6749 6.27295 35.2499 6.27295 34.7249Z" fill="#E1E1E5"/>
<path fill-rule="evenodd" clip-rule="evenodd" d="M26.6769 12.326H33.7279L25.7269 4.32495V11.376C25.7269 11.901 26.1519 12.326 26.6769 12.326Z" fill="#AFAFB5"/>
<path d="M33.727 29.5619H6.27197V30.5109H33.727V29.5619Z" fill="#E1E1E5"/>
<path d="M33.727 25.073H6.27197V26.022H33.727V25.073Z" fill="#E1E1E5"/>
<path d="M33.727 20.584H6.27197V21.533H33.727V20.584Z" fill="#E1E1E5"/>
<path d="M33.727 16.0959H6.27197V17.0449H33.727V16.0959Z" fill="#E1E1E5"/>
</g>
<defs>
<clipPath id="clip0_951_1308">
<rect width="40" height="40" fill="white"/>
</clipPath>
</defs>
</svg>
